<?xml version="1.0" encoding="UTF-8" standalone="no"?>
<!-- Created with Inkscape (http://www.inkscape.org/) -->

<svg
   width="33.528mm"
   height="27.523325mm"
   viewBox="0 0 33.528 27.523325"
   version="1.1"
   id="svg1"
   xmlns="http://www.w3.org/2000/svg"
   xmlns:svg="http://www.w3.org/2000/svg">
  <defs
     id="defs1" />
  <g
     id="layer1"
     transform="translate(-96.035964,-144.26754)">
    <g
       id="g77"
       transform="matrix(0.26458333,0,0,0.26458334,-23.005368,-0.58144647)">
      <path
         id="path78"
         d="m 1199,2918 v 34 h -65 v 166 h 249 v -166 h -66 v -34 h -118"
         style="fill:none;stroke:#000000;stroke-width:13;stroke-linecap:round;stroke-linejoin:round;stroke-miterlimit:10;stroke-dasharray:none;stroke-opacity:1"
         transform="matrix(0,-0.16,-0.16,0,992,797.33333)" />
    </g>
    <g
       id="g78"
       transform="matrix(0.26458333,0,0,0.26458334,-23.005368,-0.58144647)">
      <path
         id="path79"
         d="m 1369,3127 v 258"
         style="fill:none;stroke:#000000;stroke-width:6;stroke-linecap:round;stroke-linejoin:round;stroke-miterlimit:10;stroke-dasharray:none;stroke-opacity:1"
         transform="matrix(0,-0.16,-0.16,0,992,797.33333)" />
      <path
         id="path80"
         d="m 1147,3127 v 258"
         style="fill:none;stroke:#000000;stroke-width:6;stroke-linecap:round;stroke-linejoin:round;stroke-miterlimit:10;stroke-dasharray:none;stroke-opacity:1"
         transform="matrix(0,-0.16,-0.16,0,992,797.33333)" />
      <path
         id="path81"
         d="m 1201,3332 h 115"
         style="fill:none;stroke:#000000;stroke-width:6;stroke-linecap:round;stroke-linejoin:round;stroke-miterlimit:10;stroke-dasharray:none;stroke-opacity:1"
         transform="matrix(0,-0.16,-0.16,0,992,797.33333)" />
      <path
         id="path82"
         d="m 1369,3332 h 179 v -54"
         style="fill:none;stroke:#000000;stroke-width:6;stroke-linecap:round;stroke-linejoin:round;stroke-miterlimit:10;stroke-dasharray:none;stroke-opacity:1"
         transform="matrix(0,-0.16,-0.16,0,992,797.33333)" />
      <path
         id="path83"
         d="m 1201,3340 v -17 l -54,9 z"
         style="fill:#000000;fill-opacity:1;fill-rule:nonzero;stroke:#000000;stroke-width:1;stroke-linecap:round;stroke-linejoin:miter;stroke-miterlimit:10;stroke-dasharray:none;stroke-opacity:1"
         transform="matrix(0,-0.16,-0.16,0,992,797.33333)" />
      <path
         id="path84"
         d="m 1316,3340 v -17 l 53,9 z"
         style="fill:#000000;fill-opacity:1;fill-rule:nonzero;stroke:#000000;stroke-width:1;stroke-linecap:round;stroke-linejoin:miter;stroke-miterlimit:10;stroke-dasharray:none;stroke-opacity:1"
         transform="matrix(0,-0.16,-0.16,0,992,797.33333)" />
      <text
         id="text84"
         xml:space="preserve"
         transform="matrix(0.16,0,0,0.16,471.52,551.73333)"><tspan
           id="tspan84"
           style="font-variant:normal;font-weight:normal;font-size:37.153px;font-family:Arial;writing-mode:lr-tb;fill:#000000;fill-opacity:1;fill-rule:nonzero;stroke:none"
           x="0"
           y="0">24.0000</tspan></text>
      <path
         id="path85"
         d="M 1129,2961 H 949"
         style="fill:none;stroke:#000000;stroke-width:6;stroke-linecap:round;stroke-linejoin:round;stroke-miterlimit:10;stroke-dasharray:none;stroke-opacity:1"
         transform="matrix(0,-0.16,-0.16,0,992,797.33333)" />
      <path
         id="path86"
         d="M 1200,2935 H 949"
         style="fill:none;stroke:#000000;stroke-width:6;stroke-linecap:round;stroke-linejoin:round;stroke-miterlimit:10;stroke-dasharray:none;stroke-opacity:1"
         transform="matrix(0,-0.16,-0.16,0,992,797.33333)" />
      <path
         id="path87"
         d="m 1002,3014 v 53"
         style="fill:none;stroke:#000000;stroke-width:6;stroke-linecap:round;stroke-linejoin:round;stroke-miterlimit:10;stroke-dasharray:none;stroke-opacity:1"
         transform="matrix(0,-0.16,-0.16,0,992,797.33333)" />
      <path
         id="path88"
         d="m 1002,2882 v -63"
         style="fill:none;stroke:#000000;stroke-width:6;stroke-linecap:round;stroke-linejoin:round;stroke-miterlimit:10;stroke-dasharray:none;stroke-opacity:1"
         transform="matrix(0,-0.16,-0.16,0,992,797.33333)" />
      <path
         id="path89"
         d="m 1011,3014 h -18 l 9,-53 z"
         style="fill:#000000;fill-opacity:1;fill-rule:nonzero;stroke:#000000;stroke-width:1;stroke-linecap:round;stroke-linejoin:miter;stroke-miterlimit:10;stroke-dasharray:none;stroke-opacity:1"
         transform="matrix(0,-0.16,-0.16,0,992,797.33333)" />
      <path
         id="path90"
         d="m 1011,2882 h -18 l 9,53 z"
         style="fill:#000000;fill-opacity:1;fill-rule:nonzero;stroke:#000000;stroke-width:1;stroke-linecap:round;stroke-linejoin:miter;stroke-miterlimit:10;stroke-dasharray:none;stroke-opacity:1"
         transform="matrix(0,-0.16,-0.16,0,992,797.33333)" />
      <text
         id="text90"
         xml:space="preserve"
         transform="matrix(0.16,0,0,0.16,545.12,639.09333)"><tspan
           id="tspan90"
           style="font-variant:normal;font-weight:normal;font-size:37.153px;font-family:Arial;writing-mode:lr-tb;fill:#000000;fill-opacity:1;fill-rule:nonzero;stroke:none"
           x="0"
           y="0">2.7500</tspan></text>
      <path
         id="path91"
         d="m 1298,2917 v -73"
         style="fill:none;stroke:#000000;stroke-width:6;stroke-linecap:round;stroke-linejoin:round;stroke-miterlimit:10;stroke-dasharray:none;stroke-opacity:1"
         transform="matrix(0,-0.16,-0.16,0,992,797.33333)" />
      <path
         id="path92"
         d="m 1258,2917 v -73"
         style="fill:none;stroke:#000000;stroke-width:6;stroke-linecap:round;stroke-linejoin:round;stroke-miterlimit:10;stroke-dasharray:none;stroke-opacity:1"
         transform="matrix(0,-0.16,-0.16,0,992,797.33333)" />
      <path
         id="path93"
         d="m 1205,2897 h -53"
         style="fill:none;stroke:#000000;stroke-width:6;stroke-linecap:round;stroke-linejoin:round;stroke-miterlimit:10;stroke-dasharray:none;stroke-opacity:1"
         transform="matrix(0,-0.16,-0.16,0,992,797.33333)" />
      <path
         id="path94"
         d="m 1351,2897 h 53 v -53"
         style="fill:none;stroke:#000000;stroke-width:6;stroke-linecap:round;stroke-linejoin:round;stroke-miterlimit:10;stroke-dasharray:none;stroke-opacity:1"
         transform="matrix(0,-0.16,-0.16,0,992,797.33333)" />
      <path
         id="path95"
         d="m 1205,2906 v -18 l 53,9 z"
         style="fill:#000000;fill-opacity:1;fill-rule:nonzero;stroke:#000000;stroke-width:1;stroke-linecap:round;stroke-linejoin:miter;stroke-miterlimit:10;stroke-dasharray:none;stroke-opacity:1"
         transform="matrix(0,-0.16,-0.16,0,992,797.33333)" />
      <path
         id="path96"
         d="m 1351,2906 v -18 l -53,9 z"
         style="fill:#000000;fill-opacity:1;fill-rule:nonzero;stroke:#000000;stroke-width:1;stroke-linecap:round;stroke-linejoin:miter;stroke-miterlimit:10;stroke-dasharray:none;stroke-opacity:1"
         transform="matrix(0,-0.16,-0.16,0,992,797.33333)" />
      <text
         id="text96"
         xml:space="preserve"
         transform="matrix(0.16,0,0,0.16,541.12,574.77333)"><tspan
           id="tspan96"
           style="font-variant:normal;font-weight:normal;font-size:37.153px;font-family:Arial;writing-mode:lr-tb;fill:#000000;fill-opacity:1;fill-rule:nonzero;stroke:none"
           x="0"
           y="0">4.3125</tspan></text>
      <path
         id="path97"
         d="m 1387,3109 h 132"
         style="fill:none;stroke:#000000;stroke-width:6;stroke-linecap:round;stroke-linejoin:round;stroke-miterlimit:10;stroke-dasharray:none;stroke-opacity:1"
         transform="matrix(0,-0.16,-0.16,0,992,797.33333)" />
      <path
         id="path98"
         d="m 1387,2961 h 132"
         style="fill:none;stroke:#000000;stroke-width:6;stroke-linecap:round;stroke-linejoin:round;stroke-miterlimit:10;stroke-dasharray:none;stroke-opacity:1"
         transform="matrix(0,-0.16,-0.16,0,992,797.33333)" />
      <path
         id="path99"
         d="m 1492,3082 v -95"
         style="fill:none;stroke:#000000;stroke-width:6;stroke-linecap:round;stroke-linejoin:round;stroke-miterlimit:10;stroke-dasharray:none;stroke-opacity:1"
         transform="matrix(0,-0.16,-0.16,0,992,797.33333)" />
      <path
         id="path100"
         d="m 1492,2961 v -76"
         style="fill:none;stroke:#000000;stroke-width:6;stroke-linecap:round;stroke-linejoin:round;stroke-miterlimit:10;stroke-dasharray:none;stroke-opacity:1"
         transform="matrix(0,-0.16,-0.16,0,992,797.33333)" />
      <path
         id="path101"
         d="m 1497,3082 h -9 l 4,27 z"
         style="fill:#000000;fill-opacity:1;fill-rule:nonzero;stroke:#000000;stroke-width:1;stroke-linecap:round;stroke-linejoin:miter;stroke-miterlimit:10;stroke-dasharray:none;stroke-opacity:1"
         transform="matrix(0,-0.16,-0.16,0,992,797.33333)" />
      <path
         id="path102"
         d="m 1497,2987 h -9 l 4,-26 z"
         style="fill:#000000;fill-opacity:1;fill-rule:nonzero;stroke:#000000;stroke-width:1;stroke-linecap:round;stroke-linejoin:miter;stroke-miterlimit:10;stroke-dasharray:none;stroke-opacity:1"
         transform="matrix(0,-0.16,-0.16,0,992,797.33333)" />
      <text
         id="text102"
         xml:space="preserve"
         transform="matrix(0.16,0,0,0.16,534.08,560.69333)"><tspan
           id="tspan102"
           style="font-variant:normal;font-weight:normal;font-size:37.153px;font-family:Arial;writing-mode:lr-tb;fill:#000000;fill-opacity:1;fill-rule:nonzero;stroke:none"
           x="0"
           y="0">16.0000</tspan></text>
      <path
         id="path103"
         d="M 1200,2935 H 1019"
         style="fill:none;stroke:#000000;stroke-width:6;stroke-linecap:round;stroke-linejoin:round;stroke-miterlimit:10;stroke-dasharray:none;stroke-opacity:1"
         transform="matrix(0,-0.16,-0.16,0,992,797.33333)" />
      <path
         id="path104"
         d="M 1129,3109 H 1019"
         style="fill:none;stroke:#000000;stroke-width:6;stroke-linecap:round;stroke-linejoin:round;stroke-miterlimit:10;stroke-dasharray:none;stroke-opacity:1"
         transform="matrix(0,-0.16,-0.16,0,992,797.33333)" />
      <path
         id="path105"
         d="m 1073,2989 v 66"
         style="fill:none;stroke:#000000;stroke-width:6;stroke-linecap:round;stroke-linejoin:round;stroke-miterlimit:10;stroke-dasharray:none;stroke-opacity:1"
         transform="matrix(0,-0.16,-0.16,0,992,797.33333)" />
      <path
         id="path106"
         d="m 1073,3109 v 109"
         style="fill:none;stroke:#000000;stroke-width:6;stroke-linecap:round;stroke-linejoin:round;stroke-miterlimit:10;stroke-dasharray:none;stroke-opacity:1"
         transform="matrix(0,-0.16,-0.16,0,992,797.33333)" />
      <path
         id="path107"
         d="m 1081,2989 h -17 l 9,-54 z"
         style="fill:#000000;fill-opacity:1;fill-rule:nonzero;stroke:#000000;stroke-width:1;stroke-linecap:round;stroke-linejoin:miter;stroke-miterlimit:10;stroke-dasharray:none;stroke-opacity:1"
         transform="matrix(0,-0.16,-0.16,0,992,797.33333)" />
      <path
         id="path108"
         d="m 1081,3055 h -17 l 9,54 z"
         style="fill:#000000;fill-opacity:1;fill-rule:nonzero;stroke:#000000;stroke-width:1;stroke-linecap:round;stroke-linejoin:miter;stroke-miterlimit:10;stroke-dasharray:none;stroke-opacity:1"
         transform="matrix(0,-0.16,-0.16,0,992,797.33333)" />
      <text
         id="text108"
         xml:space="preserve"
         transform="matrix(0.16,0,0,0.16,451.68,627.73333)"><tspan
           id="tspan108"
           style="font-variant:normal;font-weight:normal;font-size:37.153px;font-family:Arial;writing-mode:lr-tb;fill:#000000;fill-opacity:1;fill-rule:nonzero;stroke:none"
           x="0"
           y="0">18.7500</tspan></text>
      <path
         id="path109"
         d="M 1218,2917 V 2599"
         style="fill:none;stroke:#000000;stroke-width:6;stroke-linecap:round;stroke-linejoin:round;stroke-miterlimit:10;stroke-dasharray:none;stroke-opacity:1"
         transform="matrix(0,-0.16,-0.16,0,992,797.33333)" />
      <path
         id="path110"
         d="M 1147,2942 V 2599"
         style="fill:none;stroke:#000000;stroke-width:6;stroke-linecap:round;stroke-linejoin:round;stroke-miterlimit:10;stroke-dasharray:none;stroke-opacity:1"
         transform="matrix(0,-0.16,-0.16,0,992,797.33333)" />
      <path
         id="path111"
         d="m 1272,2652 h 53"
         style="fill:none;stroke:#000000;stroke-width:6;stroke-linecap:round;stroke-linejoin:round;stroke-miterlimit:10;stroke-dasharray:none;stroke-opacity:1"
         transform="matrix(0,-0.16,-0.16,0,992,797.33333)" />
      <path
         id="path112"
         d="M 1094,2652 H 926 v 54"
         style="fill:none;stroke:#000000;stroke-width:6;stroke-linecap:round;stroke-linejoin:round;stroke-miterlimit:10;stroke-dasharray:none;stroke-opacity:1"
         transform="matrix(0,-0.16,-0.16,0,992,797.33333)" />
      <path
         id="path113"
         d="m 1272,2661 v -17 l -54,8 z"
         style="fill:#000000;fill-opacity:1;fill-rule:nonzero;stroke:#000000;stroke-width:1;stroke-linecap:round;stroke-linejoin:miter;stroke-miterlimit:10;stroke-dasharray:none;stroke-opacity:1"
         transform="matrix(0,-0.16,-0.16,0,992,797.33333)" />
      <path
         id="path114"
         d="m 1094,2661 v -17 l 53,8 z"
         style="fill:#000000;fill-opacity:1;fill-rule:nonzero;stroke:#000000;stroke-width:1;stroke-linecap:round;stroke-linejoin:miter;stroke-miterlimit:10;stroke-dasharray:none;stroke-opacity:1"
         transform="matrix(0,-0.16,-0.16,0,992,797.33333)" />
      <text
         id="text114"
         xml:space="preserve"
         transform="matrix(0.16,0,0,0.16,536.96,651.41333)"><tspan
           id="tspan114"
           style="font-variant:normal;font-weight:normal;font-size:37.153px;font-family:Arial;writing-mode:lr-tb;fill:#000000;fill-opacity:1;fill-rule:nonzero;stroke:none"
           x="0"
           y="0">7.6875</tspan></text>
    </g>
    <path
       id="path116"
       d="m 105.43396,149.843 h 13.335 v 14.30866 h -13.335 V 149.843"
       style="fill:none;stroke:#ff0000;stroke-width:0.254;stroke-linecap:round;stroke-linejoin:round;stroke-miterlimit:10;stroke-dasharray:none;stroke-opacity:1" />
  </g>
</svg>
